# xmcd
#
# Track frame offsets:
#       150
#       12747
#       27056
#       42743
#       57113
#       71674
#       86485
#       99788
#       116442
#       131585
#       146804
#       162951
#       181017
#       195939
#       211047
#       226835
#       243712
#       262131
#       279346
#       297066
#       316573
#       333237
#
# Disc length: 4681 seconds
#
# Revision: 1
# Processed by: cddbd v1.5.1PL0 Copyright (c) Steve Scherf et al.
# Submitted via: MusiCat 1.1
#
DISCID=2e124716
DTITLE=Bellamy Brothers - Our Danish Collection - Cd 1
DYEAR=1900
DGENRE=
TTITLE0=Let Your Love Flow
TTITLE1=If I Said You Had a Beautiful Body
TTITLE2=Sugar Daddy
TTITLE3=Big Hair
TTITLE4=Dancin' Cowboys
TTITLE5=Lovers Live Longer
TTITLE6=Do You Love as Good as You Look
TTITLE7=For All the Wrong Reasons
TTITLE8=Redneck Girl
TTITLE9=I Need More of You 
TTITLE10=Crazy From the Heart
TTITLE11=Old Hippie
TTITLE12=Big Love
TTITLE13=On a Summernight
TTITLE14=Heartbreak Overload
TTITLE15=Over the Line
TTITLE16=Afterglow
TTITLE17=Guilty of the Crime
TTITLE18=Shine Them Buckles
TTITLE19=You Aint Just Whistlin Dixie
TTITLE20=Santa Fe
TTITLE21=We Dont Wanna Go for it
EXTD=\n\n
EXTT0=
EXTT1=
EXTT2=
EXTT3=
EXTT4=
EXTT5=
EXTT6=
EXTT7=
EXTT8=
EXTT9=
EXTT10=
EXTT11=
EXTT12=
EXTT13=
EXTT14=
EXTT15=
EXTT16=
EXTT17=
EXTT18=
EXTT19=
EXTT20=
EXTT21=
PLAYORDER=
